<svg height="512pt" viewBox="0 -91 512.001 512" width="512pt" xmlns="http://www.w3.org/2000/svg"><path d="m434 .667969-311.5 60.601562c-64.199219 6.300781-114.699219 56.699219-121.597656 119.398438-.601563 4.800781-.902344 9.898437-.902344 15v60c0 41.402343 33.601562 75 75 75h256c71.398438 0 130.601562-52.199219 143.199219-102.597657 2.101562-7.800781 7.199219-26.101562 12.902343-47.402343 11.097657-41.699219 24.898438-94.800781 24.898438-105 0-49.5-48-80.699219-78-75zm0 0" fill="#ffb64c"/><path d="m487.097656 180.667969c-5.699218 21.300781-10.796875 39.601562-12.898437 47.402343-12.597657 50.398438-71.800781 102.597657-143.199219 102.597657h-256c-41.398438 0-75-33.597657-75-75v-60c0-5.097657.300781-10.199219.902344-15zm0 0" fill="#ff9100"/><path d="m331 90.667969c-49.5 0-90 40.5-90 90s40.5 90 90 90 91-40.5 91-90-41.5-90-91-90zm0 0" fill="#ffd396"/><path d="m209.5 180.667969c-6.902344-34.199219-37.199219-60-73.5-60s-67.597656 25.800781-74.5 60c-.898438 4.800781-1.5 9.902343-1.5 15 0 41.402343 34.601562 75 76 75s75-33.597657 75-75c0-5.101563-.601562-10.199219-1.5-15zm0 0" fill="#ffd396"/><g fill="#ffb64c"><path d="m209.5 180.667969c.898438 4.800781 1.5 9.902343 1.5 15 0 41.402343-33.601562 75-75 75s-76-33.597657-76-75c0-5.097657.601562-10.199219 1.5-15zm0 0"/><path d="m422 180.667969c0 49.5-41.5 90-91 90s-90-40.5-90-90zm0 0"/><path d="m331 150.667969c-16.5 0-30 13.5-30 30s13.5 30 30 30 30-13.5 30-30-13.5-30-30-30zm0 0"/></g><path d="m151 195.667969c0 8.285156-6.714844 15-15 15s-15-6.714844-15-15c0-8.28125 6.714844-15 15-15s15 6.71875 15 15zm0 0" fill="#ff9100"/><path d="m361 180.667969c0 16.5-13.5 30-30 30s-30-13.5-30-30zm0 0" fill="#ff9100"/></svg>