<svg id="Capa_1" enable-background="new 0 0 512 512" height="512" viewBox="0 0 512 512" width="512" xmlns="http://www.w3.org/2000/svg"><g><path d="m305.54 364.65 23.37 21.09c-4.25 18.36-11.5 35.56-21.19 51.08l-31.41-1.6c-7.06 9-15.19 17.12-24.19 24.19l1.61 31.4c-15.52 9.69-32.72 16.94-51.08 21.19l-21.09-23.36c-5.61.67-11.32 1.02-17.11 1.02s-11.49-.35-17.1-1.02l-21.09 23.36c-18.36-4.25-35.56-11.5-51.08-21.19l1.6-31.4c-9-7.07-17.12-15.19-24.19-24.19l-31.4 1.6c-9.69-15.52-16.94-32.72-21.19-51.08l23.36-21.09c-.67-5.61-1.02-11.31-1.02-17.1s.35-11.5 1.02-17.11l-23.36-21.09c4.25-18.36 11.5-35.56 21.19-51.08l31.4 1.61c7.07-9 15.19-17.13 24.19-24.19l-1.6-31.41c15.52-9.69 32.72-16.94 51.08-21.19l21.09 23.37c5.61-.68 11.31-1.03 17.1-1.03s11.5.35 17.11 1.03l21.09-23.37c18.36 4.25 35.56 11.5 51.08 21.19l-1.61 31.41c9 7.06 17.13 15.19 24.19 24.19l31.41-1.61c9.69 15.52 16.94 32.72 21.19 51.08l-23.37 21.09c.68 5.61 1.03 11.32 1.03 17.11s-.35 11.49-1.03 17.1z" fill="#6dabfc"/><path d="m305.54 364.65 23.37 21.09c-4.25 18.36-11.5 35.56-21.19 51.08l-31.41-1.6c-7.06 9-15.19 17.12-24.19 24.19l1.61 31.4c-15.52 9.69-32.72 16.94-51.08 21.19l-21.09-23.36c-5.61.67-11.32 1.02-17.11 1.02v-284.23c5.79 0 11.5.35 17.11 1.03l21.09-23.37c18.36 4.25 35.56 11.5 51.08 21.19l-1.61 31.41c9 7.06 17.13 15.19 24.19 24.19l31.41-1.61c9.69 15.52 16.94 32.72 21.19 51.08l-23.37 21.09c.68 5.61 1.03 11.32 1.03 17.11s-.35 11.49-1.03 17.1z" fill="#2e86fc"/><path d="m242.75 347.55c0 43.24-35.06 78.29-78.3 78.29s-78.29-35.05-78.29-78.29 35.05-78.3 78.29-78.3 78.3 35.06 78.3 78.3z" fill="#eff3f7"/><path d="m242.75 347.55c0 43.24-35.06 78.29-78.3 78.29v-156.59c43.24 0 78.3 35.06 78.3 78.3z" fill="#cddceb"/><path d="m512 109.29c0 5.99-.45 11.88-1.32 17.63l-27.62 12.17c-3.99 11.85-10.29 22.63-18.38 31.81l3.27 30.01c-9.16 7.33-19.43 13.32-30.52 17.66l-24.36-17.83c-5.95 1.19-12.09 1.82-18.39 1.82s-12.44-.63-18.39-1.82l-24.36 17.83c-11.09-4.34-21.37-10.33-30.52-17.66l3.27-30.01c-8.09-9.18-14.39-19.96-18.38-31.81l-27.62-12.17c-.87-5.75-1.32-11.64-1.32-17.63 0-6 .45-11.88 1.32-17.63l27.62-12.18c3.99-11.85 10.29-22.63 18.38-31.81l-3.27-30.01c9.15-7.33 19.43-13.32 30.52-17.66l24.36 17.83c5.95-1.19 12.09-1.82 18.39-1.82s12.44.63 18.39 1.82l24.36-17.83c11.09 4.34 21.36 10.33 30.52 17.66l-3.27 30.01c8.09 9.18 14.39 19.96 18.38 31.81l27.62 12.18c.87 5.75 1.32 11.63 1.32 17.63z" fill="#41567f"/><path d="m512 109.29c0 5.99-.45 11.88-1.32 17.63l-27.62 12.17c-3.99 11.85-10.29 22.63-18.38 31.81l3.27 30.01c-9.16 7.33-19.43 13.32-30.52 17.66l-24.36-17.83c-5.95 1.19-12.09 1.82-18.39 1.82v-186.55c6.3 0 12.44.63 18.39 1.82l24.36-17.83c11.09 4.34 21.36 10.33 30.52 17.66l-3.27 30.01c8.09 9.18 14.39 19.96 18.38 31.81l27.62 12.18c.87 5.75 1.32 11.63 1.32 17.63z" fill="#293e65"/><ellipse cx="394.68" cy="109.29" fill="#cddceb" rx="37.97" ry="37.97" transform="matrix(.23 -.973 .973 .23 197.635 468.302)"/><path d="m432.65 109.29c0 20.97-17 37.97-37.97 37.97v-75.94c20.97 0 37.97 17 37.97 37.97z" fill="#9fb6c7"/></g></svg>