<svg id="Capa_1" enable-background="new 0 0 512 512" height="512" viewBox="0 0 512 512" width="512" xmlns="http://www.w3.org/2000/svg"><g><path d="m512 256c0 141.31-114.5 255.88-255.78 256h-.22c-141.38 0-256-114.62-256-256s114.62-256 256-256h.22c141.28.12 255.78 114.69 255.78 256z" fill="#5d7198"/><path d="m512 256c0 141.31-114.5 255.88-255.78 256v-512c141.28.12 255.78 114.69 255.78 256z" fill="#41567f"/><path d="m428.14 256c0 95-76.95 172.02-171.92 172.14h-.22c-95.07 0-172.14-77.07-172.14-172.14s77.07-172.14 172.14-172.14h.22c94.97.12 171.92 77.14 171.92 172.14z" fill="#41567f"/><path d="m428.14 256c0 95-76.95 172.02-171.92 172.14v-344.28c94.97.12 171.92 77.14 171.92 172.14z" fill="#293e65"/><g><path d="m409.26 357.27-51.72 51.72-41.02-41.02c-16.65-16.65-38.48-24.94-60.3-24.89-21.67.05-43.35 8.35-59.89 24.89l-41.43 41.42-51.72-51.72 41.43-41.42c33.19-33.19 33.19-87 0-120.19l-40.99-40.99 51.72-51.72 40.99 40.99c16.54 16.55 38.22 24.84 59.89 24.89 21.82.05 43.65-8.24 60.3-24.89l40.59-40.59 51.72 51.72-40.59 40.59c-33.19 33.19-33.19 87 0 120.19z" fill="#cddceb"/></g><path d="m409.26 357.27-51.72 51.72-41.02-41.02c-16.65-16.65-38.48-24.94-60.3-24.89v-173.85c21.82.05 43.65-8.24 60.3-24.89l40.59-40.59 51.72 51.72-40.59 40.59c-33.19 33.19-33.19 87 0 120.19z" fill="#afc8db"/><path d="m292.57 256c0 20.13-16.25 36.45-36.35 36.57h-.22c-20.2 0-36.57-16.37-36.57-36.57s16.37-36.57 36.57-36.57h.22c20.1.12 36.35 16.44 36.35 36.57z" fill="#41567f"/><path d="m292.57 256c0 20.13-16.25 36.45-36.35 36.57v-73.14c20.1.12 36.35 16.44 36.35 36.57z" fill="#293e65"/><path d="m256.22 68.86h-.22c-103.19 0-187.14 83.95-187.14 187.14s83.95 187.14 187.14 187.14h.22c103.09-.12 186.92-84.02 186.92-187.14s-83.83-187.02-186.92-187.14zm0 344.28h-.22c-86.65 0-157.14-70.49-157.14-157.14s70.49-157.14 157.14-157.14h.22c86.55.12 156.92 70.56 156.92 157.14s-70.37 157.02-156.92 157.14z" fill="#eff3f7"/><path d="m443.14 256c0 103.12-83.83 187.02-186.92 187.14v-30c86.55-.12 156.92-70.56 156.92-157.14s-70.37-157.02-156.92-157.14v-30c103.09.12 186.92 84.02 186.92 187.14z" fill="#cddceb"/></g></svg>